<svg width="16" height="16" viewBox="0 0 16 16" fill="none" xmlns="http://www.w3.org/2000/svg">
<path fill-rule="evenodd" clip-rule="evenodd" d="M6.10334 0.0293848C5.09282 0.143458 3.93889 0.559506 3.1167 1.10614C1.78282 1.99302 0.835069 3.22894 0.348075 4.71658C-0.118152 6.14074 -0.115995 7.59483 0.354424 9.01621C0.60477 9.7726 0.997911 10.5033 1.49491 11.136C1.76211 11.4762 2.35641 12.0512 2.73044 12.3314C3.88544 13.1969 5.19046 13.6604 6.61935 13.7126C8.009 13.7633 9.34954 13.4033 10.5278 12.6628C10.6952 12.5576 10.8411 12.4715 10.852 12.4715C10.8629 12.4715 11.6319 13.2307 12.561 14.1585C14.4328 16.0278 14.3611 15.9689 14.8014 15.9973C15.2913 16.0288 15.7038 15.7824 15.9138 15.3328C15.9911 15.1674 16.0013 15.1099 15.9999 14.8481C15.9973 14.3554 16.087 14.4681 14.1703 12.5493C13.2424 11.6204 12.4832 10.8514 12.4832 10.8406C12.4832 10.8296 12.5692 10.6838 12.6744 10.5164C13.415 9.33829 13.7751 7.9979 13.7244 6.60841C13.671 5.14835 13.1952 3.83607 12.285 2.63849C12.0519 2.3318 11.454 1.72535 11.1475 1.48457C10.1233 0.680239 8.87143 0.167223 7.58884 0.0262578C7.25805 -0.0101092 6.43787 -0.0083581 6.10334 0.0293848ZM7.62011 2.35663C9.21472 2.60788 10.6259 3.78485 11.162 5.31071C11.3678 5.89639 11.4016 6.10919 11.403 6.8273C11.404 7.34917 11.3925 7.53838 11.3471 7.74902C11.209 8.38971 10.9413 9.00858 10.5858 9.50899C10.353 9.8367 9.84851 10.3416 9.52727 10.5684C8.64351 11.1923 7.63903 11.4731 6.54117 11.403C4.91828 11.2995 3.44551 10.2942 2.74448 8.81161C2.14512 7.54398 2.15616 6.0691 2.77422 4.83859C2.94989 4.48884 3.02657 4.36751 3.27604 4.04427C4.15893 2.90032 5.59764 2.23017 7.02591 2.29753C7.19791 2.30566 7.4653 2.33224 7.62011 2.35663Z" fill="white"/>
</svg>
