<svg width="14" height="14" viewBox="0 0 14 14" fill="none" xmlns="http://www.w3.org/2000/svg">
<rect y="3" width="3" height="3" fill="white"/>
<rect width="3" height="3" transform="matrix(-1 0 0 1 14 3)" fill="white"/>
<rect x="3" y="3" width="3" height="3" fill="white"/>
<rect width="3" height="3" transform="matrix(-1 0 0 1 11 3)" fill="white"/>
<rect x="3" width="3" height="3" fill="white"/>
<rect width="3" height="3" transform="matrix(-1 0 0 1 11 0)" fill="white"/>
<rect width="3" height="3" transform="matrix(1 0 0 -1 0 11)" fill="white"/>
<rect x="14" y="11" width="3" height="3" transform="rotate(-180 14 11)" fill="white"/>
<rect width="3" height="3" transform="matrix(1 0 0 -1 3 11)" fill="white"/>
<rect x="11" y="11" width="3" height="3" transform="rotate(-180 11 11)" fill="white"/>
<rect width="3" height="3" transform="matrix(1 0 0 -1 3 14)" fill="white"/>
<rect x="11" y="14" width="3" height="3" transform="rotate(-180 11 14)" fill="white"/>
</svg>
